<mxfile host="app.diagrams.net" modified="2023-06-08T13:34:03.685Z" agent="Mozilla/5.0 (Windows NT 10.0; Win64; x64) AppleWebKit/537.36 (KHTML, like Gecko) Chrome/114.0.0.0 Safari/537.36" etag="hvdUx3fN83pdAc3aOiQp" version="21.3.7" type="device">
  <diagram name="Page-1" id="8inhs9ZFYqQBoetOoNiY">
    <mxGraphModel dx="2376" dy="2986" grid="1" gridSize="10" guides="1" tooltips="1" connect="1" arrows="1" fold="1" page="1" pageScale="1" pageWidth="850" pageHeight="1100" math="0" shadow="0">
      <root>
        <mxCell id="0" />
        <mxCell id="1" parent="0" />
        <mxCell id="2HHwii4UE3nNJhtwc6gf-33" style="edgeStyle=orthogonalEdgeStyle;rounded=0;orthogonalLoop=1;jettySize=auto;html=1;endArrow=none;endFill=0;jumpSize=7;endSize=16;" parent="1" source="a46mlF3yRspsXj15uBq6-1" target="2HHwii4UE3nNJhtwc6gf-10" edge="1">
          <mxGeometry relative="1" as="geometry">
            <Array as="points">
              <mxPoint x="300" y="130" />
              <mxPoint x="300" y="130" />
            </Array>
          </mxGeometry>
        </mxCell>
        <mxCell id="hXK-8yscra5qIgaVrozL-3" style="edgeStyle=orthogonalEdgeStyle;rounded=0;orthogonalLoop=1;jettySize=auto;html=1;endArrow=block;endFill=0;endSize=11;dashed=1;" parent="1" source="a46mlF3yRspsXj15uBq6-1" target="jIkOqSR4Ub0WzB91D_wy-7" edge="1">
          <mxGeometry relative="1" as="geometry">
            <Array as="points">
              <mxPoint x="-160" y="162" />
              <mxPoint x="-160" y="162" />
            </Array>
          </mxGeometry>
        </mxCell>
        <mxCell id="dUkjWJWrrvQ80w0tsoIT-20" style="edgeStyle=orthogonalEdgeStyle;rounded=0;orthogonalLoop=1;jettySize=auto;html=1;endArrow=open;dashed=1;endFill=0;endSize=16;" parent="1" source="a46mlF3yRspsXj15uBq6-1" target="dUkjWJWrrvQ80w0tsoIT-9" edge="1">
          <mxGeometry relative="1" as="geometry">
            <Array as="points">
              <mxPoint x="175" y="-80" />
              <mxPoint x="930" y="-80" />
            </Array>
          </mxGeometry>
        </mxCell>
        <mxCell id="dUkjWJWrrvQ80w0tsoIT-25" style="edgeStyle=orthogonalEdgeStyle;rounded=0;orthogonalLoop=1;jettySize=auto;html=1;endArrow=block;endFill=0;endSize=11;dashed=1;" parent="1" source="H162WJ4VFneEVHFy4zlM-11" target="dUkjWJWrrvQ80w0tsoIT-22" edge="1">
          <mxGeometry relative="1" as="geometry">
            <Array as="points">
              <mxPoint x="1225" y="-540" />
            </Array>
          </mxGeometry>
        </mxCell>
        <mxCell id="a46mlF3yRspsXj15uBq6-1" value="&lt;i&gt;Enemigo&lt;/i&gt;" style="swimlane;fontStyle=1;align=center;verticalAlign=top;childLayout=stackLayout;horizontal=1;startSize=26;horizontalStack=0;resizeParent=1;resizeParentMax=0;resizeLast=0;collapsible=1;marginBottom=0;whiteSpace=wrap;html=1;" parent="1" vertex="1">
          <mxGeometry x="70" y="4" width="210" height="280" as="geometry" />
        </mxCell>
        <mxCell id="a46mlF3yRspsXj15uBq6-2" value="# energia: int" style="text;strokeColor=none;fillColor=none;align=left;verticalAlign=top;spacingLeft=4;spacingRight=4;overflow=hidden;rotatable=0;points=[[0,0.5],[1,0.5]];portConstraint=eastwest;whiteSpace=wrap;html=1;" parent="a46mlF3yRspsXj15uBq6-1" vertex="1">
          <mxGeometry y="26" width="210" height="26" as="geometry" />
        </mxCell>
        <mxCell id="a46mlF3yRspsXj15uBq6-5" value="# velocidad: int" style="text;strokeColor=none;fillColor=none;align=left;verticalAlign=top;spacingLeft=4;spacingRight=4;overflow=hidden;rotatable=0;points=[[0,0.5],[1,0.5]];portConstraint=eastwest;whiteSpace=wrap;html=1;" parent="a46mlF3yRspsXj15uBq6-1" vertex="1">
          <mxGeometry y="52" width="210" height="26" as="geometry" />
        </mxCell>
        <mxCell id="a46mlF3yRspsXj15uBq6-6" value="# daño: int" style="text;strokeColor=none;fillColor=none;align=left;verticalAlign=top;spacingLeft=4;spacingRight=4;overflow=hidden;rotatable=0;points=[[0,0.5],[1,0.5]];portConstraint=eastwest;whiteSpace=wrap;html=1;" parent="a46mlF3yRspsXj15uBq6-1" vertex="1">
          <mxGeometry y="78" width="210" height="26" as="geometry" />
        </mxCell>
        <mxCell id="2HHwii4UE3nNJhtwc6gf-1" value="# estado: string" style="text;strokeColor=none;fillColor=none;align=left;verticalAlign=top;spacingLeft=4;spacingRight=4;overflow=hidden;rotatable=0;points=[[0,0.5],[1,0.5]];portConstraint=eastwest;whiteSpace=wrap;html=1;" parent="a46mlF3yRspsXj15uBq6-1" vertex="1">
          <mxGeometry y="104" width="210" height="26" as="geometry" />
        </mxCell>
        <mxCell id="jIkOqSR4Ub0WzB91D_wy-20" value="# creditos: int" style="text;strokeColor=none;fillColor=none;align=left;verticalAlign=top;spacingLeft=4;spacingRight=4;overflow=hidden;rotatable=0;points=[[0,0.5],[1,0.5]];portConstraint=eastwest;whiteSpace=wrap;html=1;" parent="a46mlF3yRspsXj15uBq6-1" vertex="1">
          <mxGeometry y="130" width="210" height="26" as="geometry" />
        </mxCell>
        <mxCell id="a46mlF3yRspsXj15uBq6-3" value="" style="line;strokeWidth=1;fillColor=none;align=left;verticalAlign=middle;spacingTop=-1;spacingLeft=3;spacingRight=3;rotatable=0;labelPosition=right;points=[];portConstraint=eastwest;strokeColor=inherit;" parent="a46mlF3yRspsXj15uBq6-1" vertex="1">
          <mxGeometry y="156" width="210" height="8" as="geometry" />
        </mxCell>
        <mxCell id="a46mlF3yRspsXj15uBq6-4" value="+ avanzar(): void" style="text;strokeColor=none;fillColor=none;align=left;verticalAlign=top;spacingLeft=4;spacingRight=4;overflow=hidden;rotatable=0;points=[[0,0.5],[1,0.5]];portConstraint=eastwest;whiteSpace=wrap;html=1;" parent="a46mlF3yRspsXj15uBq6-1" vertex="1">
          <mxGeometry y="164" width="210" height="26" as="geometry" />
        </mxCell>
        <mxCell id="hXK-8yscra5qIgaVrozL-6" value="+ devolverDaño(): int" style="text;strokeColor=none;fillColor=none;align=left;verticalAlign=top;spacingLeft=4;spacingRight=4;overflow=hidden;rotatable=0;points=[[0,0.5],[1,0.5]];portConstraint=eastwest;whiteSpace=wrap;html=1;" parent="a46mlF3yRspsXj15uBq6-1" vertex="1">
          <mxGeometry y="190" width="210" height="30" as="geometry" />
        </mxCell>
        <mxCell id="hXK-8yscra5qIgaVrozL-8" value="+ recibirDaño(daño: int): void" style="text;strokeColor=none;fillColor=none;align=left;verticalAlign=top;spacingLeft=4;spacingRight=4;overflow=hidden;rotatable=0;points=[[0,0.5],[1,0.5]];portConstraint=eastwest;whiteSpace=wrap;html=1;" parent="a46mlF3yRspsXj15uBq6-1" vertex="1">
          <mxGeometry y="220" width="210" height="28" as="geometry" />
        </mxCell>
        <mxCell id="2HHwii4UE3nNJhtwc6gf-18" value="+ estaMuerto(): bool" style="text;strokeColor=none;fillColor=none;align=left;verticalAlign=top;spacingLeft=4;spacingRight=4;overflow=hidden;rotatable=0;points=[[0,0.5],[1,0.5]];portConstraint=eastwest;whiteSpace=wrap;html=1;" parent="a46mlF3yRspsXj15uBq6-1" vertex="1">
          <mxGeometry y="248" width="210" height="32" as="geometry" />
        </mxCell>
        <mxCell id="a46mlF3yRspsXj15uBq6-17" style="edgeStyle=orthogonalEdgeStyle;rounded=0;orthogonalLoop=1;jettySize=auto;html=1;endArrow=block;endFill=0;endSize=11;" parent="1" source="a46mlF3yRspsXj15uBq6-38" target="a46mlF3yRspsXj15uBq6-1" edge="1">
          <mxGeometry relative="1" as="geometry">
            <mxPoint x="340.0000000000002" y="350" as="sourcePoint" />
            <mxPoint x="250" y="456" as="targetPoint" />
            <Array as="points">
              <mxPoint x="348" y="440" />
              <mxPoint x="200" y="440" />
            </Array>
          </mxGeometry>
        </mxCell>
        <mxCell id="a46mlF3yRspsXj15uBq6-53" style="edgeStyle=orthogonalEdgeStyle;rounded=0;orthogonalLoop=1;jettySize=auto;html=1;endArrow=block;endFill=0;endSize=11;" parent="1" source="a46mlF3yRspsXj15uBq6-21" target="a46mlF3yRspsXj15uBq6-1" edge="1">
          <mxGeometry relative="1" as="geometry">
            <mxPoint x="185" y="456" as="targetPoint" />
            <Array as="points">
              <mxPoint x="90" y="440" />
              <mxPoint x="200" y="440" />
            </Array>
          </mxGeometry>
        </mxCell>
        <mxCell id="a46mlF3yRspsXj15uBq6-21" value="Araña" style="swimlane;fontStyle=1;align=center;verticalAlign=top;childLayout=stackLayout;horizontal=1;startSize=26;horizontalStack=0;resizeParent=1;resizeParentMax=0;resizeLast=0;collapsible=1;marginBottom=0;whiteSpace=wrap;html=1;" parent="1" vertex="1">
          <mxGeometry x="-80" y="490" width="270" height="60" as="geometry" />
        </mxCell>
        <mxCell id="a46mlF3yRspsXj15uBq6-22" value="" style="line;strokeWidth=1;fillColor=none;align=left;verticalAlign=middle;spacingTop=-1;spacingLeft=3;spacingRight=3;rotatable=0;labelPosition=right;points=[];portConstraint=eastwest;strokeColor=inherit;" parent="a46mlF3yRspsXj15uBq6-21" vertex="1">
          <mxGeometry y="26" width="270" height="8" as="geometry" />
        </mxCell>
        <mxCell id="a46mlF3yRspsXj15uBq6-48" value="+ otorgarCredito(): int" style="text;strokeColor=none;fillColor=none;align=left;verticalAlign=top;spacingLeft=4;spacingRight=4;overflow=hidden;rotatable=0;points=[[0,0.5],[1,0.5]];portConstraint=eastwest;whiteSpace=wrap;html=1;" parent="a46mlF3yRspsXj15uBq6-21" vertex="1">
          <mxGeometry y="34" width="270" height="26" as="geometry" />
        </mxCell>
        <mxCell id="a46mlF3yRspsXj15uBq6-38" value="Hormiga" style="swimlane;fontStyle=1;align=center;verticalAlign=top;childLayout=stackLayout;horizontal=1;startSize=26;horizontalStack=0;resizeParent=1;resizeParentMax=0;resizeLast=0;collapsible=1;marginBottom=0;whiteSpace=wrap;html=1;" parent="1" vertex="1">
          <mxGeometry x="230" y="491" width="280" height="76" as="geometry" />
        </mxCell>
        <mxCell id="a46mlF3yRspsXj15uBq6-40" value="" style="line;strokeWidth=1;fillColor=none;align=left;verticalAlign=middle;spacingTop=-1;spacingLeft=3;spacingRight=3;rotatable=0;labelPosition=right;points=[];portConstraint=eastwest;strokeColor=inherit;" parent="a46mlF3yRspsXj15uBq6-38" vertex="1">
          <mxGeometry y="26" width="280" height="10" as="geometry" />
        </mxCell>
        <mxCell id="a46mlF3yRspsXj15uBq6-41" value="+ otorgarCredito(hormigasMuertas: int): int" style="text;strokeColor=none;fillColor=none;align=left;verticalAlign=top;spacingLeft=4;spacingRight=4;overflow=hidden;rotatable=0;points=[[0,0.5],[1,0.5]];portConstraint=eastwest;whiteSpace=wrap;html=1;" parent="a46mlF3yRspsXj15uBq6-38" vertex="1">
          <mxGeometry y="36" width="280" height="40" as="geometry" />
        </mxCell>
        <mxCell id="2HHwii4UE3nNJhtwc6gf-10" value="Pasarela" style="swimlane;fontStyle=1;align=center;verticalAlign=top;childLayout=stackLayout;horizontal=1;startSize=26;horizontalStack=0;resizeParent=1;resizeParentMax=0;resizeLast=0;collapsible=1;marginBottom=0;whiteSpace=wrap;html=1;" parent="1" vertex="1">
          <mxGeometry x="380" y="10" width="240" height="340" as="geometry" />
        </mxCell>
        <mxCell id="2HHwii4UE3nNJhtwc6gf-19" value="# pasarelaSiguiente: Pasarela" style="text;strokeColor=none;fillColor=none;align=left;verticalAlign=top;spacingLeft=4;spacingRight=4;overflow=hidden;rotatable=0;points=[[0,0.5],[1,0.5]];portConstraint=eastwest;whiteSpace=wrap;html=1;" parent="2HHwii4UE3nNJhtwc6gf-10" vertex="1">
          <mxGeometry y="26" width="240" height="26" as="geometry" />
        </mxCell>
        <mxCell id="2HHwii4UE3nNJhtwc6gf-12" value="" style="line;strokeWidth=1;fillColor=none;align=left;verticalAlign=middle;spacingTop=-1;spacingLeft=3;spacingRight=3;rotatable=0;labelPosition=right;points=[];portConstraint=eastwest;strokeColor=inherit;" parent="2HHwii4UE3nNJhtwc6gf-10" vertex="1">
          <mxGeometry y="52" width="240" height="8" as="geometry" />
        </mxCell>
        <mxCell id="H162WJ4VFneEVHFy4zlM-33" value="+ puedeAlojarTorre(): bool" style="text;strokeColor=none;fillColor=none;align=left;verticalAlign=top;spacingLeft=4;spacingRight=4;overflow=hidden;rotatable=0;points=[[0,0.5],[1,0.5]];portConstraint=eastwest;whiteSpace=wrap;html=1;" parent="2HHwii4UE3nNJhtwc6gf-10" vertex="1">
          <mxGeometry y="60" width="240" height="30" as="geometry" />
        </mxCell>
        <mxCell id="dUkjWJWrrvQ80w0tsoIT-8" value="&lt;span style=&quot;border-color: var(--border-color);&quot;&gt;+ tieneEnemigos(): bool&lt;/span&gt;" style="text;strokeColor=none;fillColor=none;align=left;verticalAlign=top;spacingLeft=4;spacingRight=4;overflow=hidden;rotatable=0;points=[[0,0.5],[1,0.5]];portConstraint=eastwest;whiteSpace=wrap;html=1;" parent="2HHwii4UE3nNJhtwc6gf-10" vertex="1">
          <mxGeometry y="90" width="240" height="30" as="geometry" />
        </mxCell>
        <mxCell id="H162WJ4VFneEVHFy4zlM-78" value="+ avanzarTurno(): void" style="text;strokeColor=none;fillColor=none;align=left;verticalAlign=top;spacingLeft=4;spacingRight=4;overflow=hidden;rotatable=0;points=[[0,0.5],[1,0.5]];portConstraint=eastwest;whiteSpace=wrap;html=1;" parent="2HHwii4UE3nNJhtwc6gf-10" vertex="1">
          <mxGeometry y="120" width="240" height="30" as="geometry" />
        </mxCell>
        <mxCell id="2HHwii4UE3nNJhtwc6gf-32" value="+ dañarEnemigos(daño: int): void" style="text;strokeColor=none;fillColor=none;align=left;verticalAlign=top;spacingLeft=4;spacingRight=4;overflow=hidden;rotatable=0;points=[[0,0.5],[1,0.5]];portConstraint=eastwest;whiteSpace=wrap;html=1;" parent="2HHwii4UE3nNJhtwc6gf-10" vertex="1">
          <mxGeometry y="150" width="240" height="30" as="geometry" />
        </mxCell>
        <mxCell id="jIkOqSR4Ub0WzB91D_wy-19" value="+ cantidadDeCreditosGenerados(): int" style="text;strokeColor=none;fillColor=none;align=left;verticalAlign=top;spacingLeft=4;spacingRight=4;overflow=hidden;rotatable=0;points=[[0,0.5],[1,0.5]];portConstraint=eastwest;whiteSpace=wrap;html=1;" parent="2HHwii4UE3nNJhtwc6gf-10" vertex="1">
          <mxGeometry y="180" width="240" height="30" as="geometry" />
        </mxCell>
        <mxCell id="H162WJ4VFneEVHFy4zlM-23" value="- avanzarEnemigos(): void" style="text;strokeColor=none;fillColor=none;align=left;verticalAlign=top;spacingLeft=4;spacingRight=4;overflow=hidden;rotatable=0;points=[[0,0.5],[1,0.5]];portConstraint=eastwest;whiteSpace=wrap;html=1;" parent="2HHwii4UE3nNJhtwc6gf-10" vertex="1">
          <mxGeometry y="210" width="240" height="30" as="geometry" />
        </mxCell>
        <mxCell id="jIkOqSR4Ub0WzB91D_wy-24" value="+ obtenerPasarelaADistancia(velocidad: int): Pasarela" style="text;strokeColor=none;fillColor=none;align=left;verticalAlign=top;spacingLeft=4;spacingRight=4;overflow=hidden;rotatable=0;points=[[0,0.5],[1,0.5]];portConstraint=eastwest;whiteSpace=wrap;html=1;" parent="2HHwii4UE3nNJhtwc6gf-10" vertex="1">
          <mxGeometry y="240" width="240" height="40" as="geometry" />
        </mxCell>
        <mxCell id="4BqtrfCsilX9TcQqH0R--1" value="+ otorgarCreditos(): int" style="text;strokeColor=none;fillColor=none;align=left;verticalAlign=top;spacingLeft=4;spacingRight=4;overflow=hidden;rotatable=0;points=[[0,0.5],[1,0.5]];portConstraint=eastwest;whiteSpace=wrap;html=1;" parent="2HHwii4UE3nNJhtwc6gf-10" vertex="1">
          <mxGeometry y="280" width="240" height="30" as="geometry" />
        </mxCell>
        <mxCell id="H162WJ4VFneEVHFy4zlM-89" value="+ recibirEnemigo(enemigo: Enemigo): void" style="text;strokeColor=none;fillColor=none;align=left;verticalAlign=top;spacingLeft=4;spacingRight=4;overflow=hidden;rotatable=0;points=[[0,0.5],[1,0.5]];portConstraint=eastwest;whiteSpace=wrap;html=1;" parent="2HHwii4UE3nNJhtwc6gf-10" vertex="1">
          <mxGeometry y="310" width="240" height="30" as="geometry" />
        </mxCell>
        <mxCell id="2HHwii4UE3nNJhtwc6gf-23" value="Juego" style="swimlane;fontStyle=1;align=center;verticalAlign=top;childLayout=stackLayout;horizontal=1;startSize=26;horizontalStack=0;resizeParent=1;resizeParentMax=0;resizeLast=0;collapsible=1;marginBottom=0;whiteSpace=wrap;html=1;" parent="1" vertex="1">
          <mxGeometry x="-60" y="-1600" width="300" height="260" as="geometry" />
        </mxCell>
        <mxCell id="2HHwii4UE3nNJhtwc6gf-36" value="- turno: int" style="text;strokeColor=none;fillColor=none;align=left;verticalAlign=top;spacingLeft=4;spacingRight=4;overflow=hidden;rotatable=0;points=[[0,0.5],[1,0.5]];portConstraint=eastwest;whiteSpace=wrap;html=1;" parent="2HHwii4UE3nNJhtwc6gf-23" vertex="1">
          <mxGeometry y="26" width="300" height="26" as="geometry" />
        </mxCell>
        <mxCell id="4BqtrfCsilX9TcQqH0R--10" value="- generacionDeEnemigos: JSON" style="text;strokeColor=none;fillColor=none;align=left;verticalAlign=top;spacingLeft=4;spacingRight=4;overflow=hidden;rotatable=0;points=[[0,0.5],[1,0.5]];portConstraint=eastwest;whiteSpace=wrap;html=1;" parent="2HHwii4UE3nNJhtwc6gf-23" vertex="1">
          <mxGeometry y="52" width="300" height="26" as="geometry" />
        </mxCell>
        <mxCell id="4BqtrfCsilX9TcQqH0R--9" value="- generacionDeParcelas: JSON" style="text;strokeColor=none;fillColor=none;align=left;verticalAlign=top;spacingLeft=4;spacingRight=4;overflow=hidden;rotatable=0;points=[[0,0.5],[1,0.5]];portConstraint=eastwest;whiteSpace=wrap;html=1;" parent="2HHwii4UE3nNJhtwc6gf-23" vertex="1">
          <mxGeometry y="78" width="300" height="26" as="geometry" />
        </mxCell>
        <mxCell id="2HHwii4UE3nNJhtwc6gf-27" value="" style="line;strokeWidth=1;fillColor=none;align=left;verticalAlign=middle;spacingTop=-1;spacingLeft=3;spacingRight=3;rotatable=0;labelPosition=right;points=[];portConstraint=eastwest;strokeColor=inherit;" parent="2HHwii4UE3nNJhtwc6gf-23" vertex="1">
          <mxGeometry y="104" width="300" height="8" as="geometry" />
        </mxCell>
        <mxCell id="2HHwii4UE3nNJhtwc6gf-37" value="+ avanzarTurno(): void" style="text;strokeColor=none;fillColor=none;align=left;verticalAlign=top;spacingLeft=4;spacingRight=4;overflow=hidden;rotatable=0;points=[[0,0.5],[1,0.5]];portConstraint=eastwest;whiteSpace=wrap;html=1;" parent="2HHwii4UE3nNJhtwc6gf-23" vertex="1">
          <mxGeometry y="112" width="300" height="30" as="geometry" />
        </mxCell>
        <mxCell id="jIkOqSR4Ub0WzB91D_wy-16" value="- otorgarCreditos(): void" style="text;strokeColor=none;fillColor=none;align=left;verticalAlign=top;spacingLeft=4;spacingRight=4;overflow=hidden;rotatable=0;points=[[0,0.5],[1,0.5]];portConstraint=eastwest;whiteSpace=wrap;html=1;" parent="2HHwii4UE3nNJhtwc6gf-23" vertex="1">
          <mxGeometry y="142" width="300" height="30" as="geometry" />
        </mxCell>
        <mxCell id="dUkjWJWrrvQ80w0tsoIT-1" value="+ construirMapa(): Mapa" style="text;strokeColor=none;fillColor=none;align=left;verticalAlign=top;spacingLeft=4;spacingRight=4;overflow=hidden;rotatable=0;points=[[0,0.5],[1,0.5]];portConstraint=eastwest;whiteSpace=wrap;html=1;" parent="2HHwii4UE3nNJhtwc6gf-23" vertex="1">
          <mxGeometry y="172" width="300" height="28" as="geometry" />
        </mxCell>
        <mxCell id="dUkjWJWrrvQ80w0tsoIT-2" value="+ colocarTorre(): void" style="text;strokeColor=none;fillColor=none;align=left;verticalAlign=top;spacingLeft=4;spacingRight=4;overflow=hidden;rotatable=0;points=[[0,0.5],[1,0.5]];portConstraint=eastwest;whiteSpace=wrap;html=1;" parent="2HHwii4UE3nNJhtwc6gf-23" vertex="1">
          <mxGeometry y="200" width="300" height="30" as="geometry" />
        </mxCell>
        <mxCell id="wI3-Bf6nQ7sibrHFRUER-1" value="+ estadoJuego(): int" style="text;strokeColor=none;fillColor=none;align=left;verticalAlign=top;spacingLeft=4;spacingRight=4;overflow=hidden;rotatable=0;points=[[0,0.5],[1,0.5]];portConstraint=eastwest;whiteSpace=wrap;html=1;" parent="2HHwii4UE3nNJhtwc6gf-23" vertex="1">
          <mxGeometry y="230" width="300" height="30" as="geometry" />
        </mxCell>
        <mxCell id="2HHwii4UE3nNJhtwc6gf-47" style="edgeStyle=orthogonalEdgeStyle;rounded=0;orthogonalLoop=1;jettySize=auto;html=1;endArrow=diamond;endFill=0;endSize=16;" parent="1" source="2HHwii4UE3nNJhtwc6gf-38" target="2HHwii4UE3nNJhtwc6gf-23" edge="1">
          <mxGeometry relative="1" as="geometry">
            <Array as="points">
              <mxPoint x="110" y="-1150" />
              <mxPoint x="110" y="-1150" />
            </Array>
          </mxGeometry>
        </mxCell>
        <mxCell id="wI3-Bf6nQ7sibrHFRUER-11" style="edgeStyle=orthogonalEdgeStyle;rounded=0;orthogonalLoop=1;jettySize=auto;html=1;endArrow=block;endFill=0;endSize=11;dashed=1;" parent="1" source="2HHwii4UE3nNJhtwc6gf-38" target="wI3-Bf6nQ7sibrHFRUER-4" edge="1">
          <mxGeometry relative="1" as="geometry">
            <Array as="points">
              <mxPoint x="110" y="-700" />
              <mxPoint x="1470" y="-700" />
              <mxPoint x="1470" y="46" />
            </Array>
          </mxGeometry>
        </mxCell>
        <mxCell id="2HHwii4UE3nNJhtwc6gf-38" value="Jugador" style="swimlane;fontStyle=1;align=center;verticalAlign=top;childLayout=stackLayout;horizontal=1;startSize=26;horizontalStack=0;resizeParent=1;resizeParentMax=0;resizeLast=0;collapsible=1;marginBottom=0;whiteSpace=wrap;html=1;" parent="1" vertex="1">
          <mxGeometry x="-30" y="-1080" width="280" height="192" as="geometry" />
        </mxCell>
        <mxCell id="hXK-8yscra5qIgaVrozL-13" value="- nombre: String" style="text;strokeColor=none;fillColor=none;align=left;verticalAlign=top;spacingLeft=4;spacingRight=4;overflow=hidden;rotatable=0;points=[[0,0.5],[1,0.5]];portConstraint=eastwest;whiteSpace=wrap;html=1;" parent="2HHwii4UE3nNJhtwc6gf-38" vertex="1">
          <mxGeometry y="26" width="280" height="26" as="geometry" />
        </mxCell>
        <mxCell id="2HHwii4UE3nNJhtwc6gf-39" value="- creditos: int" style="text;strokeColor=none;fillColor=none;align=left;verticalAlign=top;spacingLeft=4;spacingRight=4;overflow=hidden;rotatable=0;points=[[0,0.5],[1,0.5]];portConstraint=eastwest;whiteSpace=wrap;html=1;" parent="2HHwii4UE3nNJhtwc6gf-38" vertex="1">
          <mxGeometry y="52" width="280" height="26" as="geometry" />
        </mxCell>
        <mxCell id="jIkOqSR4Ub0WzB91D_wy-2" value="- vida: int" style="text;strokeColor=none;fillColor=none;align=left;verticalAlign=top;spacingLeft=4;spacingRight=4;overflow=hidden;rotatable=0;points=[[0,0.5],[1,0.5]];portConstraint=eastwest;whiteSpace=wrap;html=1;" parent="2HHwii4UE3nNJhtwc6gf-38" vertex="1">
          <mxGeometry y="78" width="280" height="26" as="geometry" />
        </mxCell>
        <mxCell id="2HHwii4UE3nNJhtwc6gf-40" value="" style="line;strokeWidth=1;fillColor=none;align=left;verticalAlign=middle;spacingTop=-1;spacingLeft=3;spacingRight=3;rotatable=0;labelPosition=right;points=[];portConstraint=eastwest;strokeColor=inherit;" parent="2HHwii4UE3nNJhtwc6gf-38" vertex="1">
          <mxGeometry y="104" width="280" height="8" as="geometry" />
        </mxCell>
        <mxCell id="H162WJ4VFneEVHFy4zlM-43" value="+ avanzarTurno(): void" style="text;strokeColor=none;fillColor=none;align=left;verticalAlign=top;spacingLeft=4;spacingRight=4;overflow=hidden;rotatable=0;points=[[0,0.5],[1,0.5]];portConstraint=eastwest;whiteSpace=wrap;html=1;" parent="2HHwii4UE3nNJhtwc6gf-38" vertex="1">
          <mxGeometry y="112" width="280" height="26" as="geometry" />
        </mxCell>
        <mxCell id="2HHwii4UE3nNJhtwc6gf-41" value="+ recibirCreditos(cantidad: int): void" style="text;strokeColor=none;fillColor=none;align=left;verticalAlign=top;spacingLeft=4;spacingRight=4;overflow=hidden;rotatable=0;points=[[0,0.5],[1,0.5]];portConstraint=eastwest;whiteSpace=wrap;html=1;" parent="2HHwii4UE3nNJhtwc6gf-38" vertex="1">
          <mxGeometry y="138" width="280" height="26" as="geometry" />
        </mxCell>
        <mxCell id="H162WJ4VFneEVHFy4zlM-100" value="+ recibirDaño(daño: int): void" style="text;strokeColor=none;fillColor=none;align=left;verticalAlign=top;spacingLeft=4;spacingRight=4;overflow=hidden;rotatable=0;points=[[0,0.5],[1,0.5]];portConstraint=eastwest;whiteSpace=wrap;html=1;" parent="2HHwii4UE3nNJhtwc6gf-38" vertex="1">
          <mxGeometry y="164" width="280" height="28" as="geometry" />
        </mxCell>
        <mxCell id="H162WJ4VFneEVHFy4zlM-20" style="edgeStyle=orthogonalEdgeStyle;rounded=0;orthogonalLoop=1;jettySize=auto;html=1;endArrow=none;endFill=0;endSize=16;" parent="1" source="H162WJ4VFneEVHFy4zlM-11" target="H162WJ4VFneEVHFy4zlM-15" edge="1">
          <mxGeometry relative="1" as="geometry">
            <Array as="points">
              <mxPoint x="580" y="-572" />
            </Array>
          </mxGeometry>
        </mxCell>
        <mxCell id="H162WJ4VFneEVHFy4zlM-22" style="edgeStyle=orthogonalEdgeStyle;rounded=0;orthogonalLoop=1;jettySize=auto;html=1;endArrow=block;endFill=0;endSize=11;" parent="1" source="2HHwii4UE3nNJhtwc6gf-10" target="H162WJ4VFneEVHFy4zlM-11" edge="1">
          <mxGeometry relative="1" as="geometry">
            <mxPoint x="400" y="-310" as="targetPoint" />
            <Array as="points">
              <mxPoint x="500" y="-222" />
              <mxPoint x="410" y="-222" />
            </Array>
          </mxGeometry>
        </mxCell>
        <mxCell id="hXK-8yscra5qIgaVrozL-10" style="edgeStyle=orthogonalEdgeStyle;rounded=0;orthogonalLoop=1;jettySize=auto;html=1;endArrow=block;endFill=0;endSize=11;dashed=1;" parent="1" source="H162WJ4VFneEVHFy4zlM-11" target="jIkOqSR4Ub0WzB91D_wy-7" edge="1">
          <mxGeometry relative="1" as="geometry">
            <Array as="points">
              <mxPoint x="370" y="-180" />
              <mxPoint x="-250" y="-180" />
              <mxPoint x="-250" y="148" />
            </Array>
          </mxGeometry>
        </mxCell>
        <mxCell id="wI3-Bf6nQ7sibrHFRUER-9" style="edgeStyle=orthogonalEdgeStyle;rounded=0;orthogonalLoop=1;jettySize=auto;html=1;entryX=0.5;entryY=0;entryDx=0;entryDy=0;endArrow=block;endFill=0;endSize=11;dashed=1;" parent="1" source="H162WJ4VFneEVHFy4zlM-11" target="wI3-Bf6nQ7sibrHFRUER-4" edge="1">
          <mxGeometry relative="1" as="geometry">
            <Array as="points">
              <mxPoint x="460" y="-330" />
              <mxPoint x="670" y="-330" />
              <mxPoint x="670" y="-10" />
              <mxPoint x="1290" y="-10" />
            </Array>
          </mxGeometry>
        </mxCell>
        <mxCell id="H162WJ4VFneEVHFy4zlM-11" value="&lt;i&gt;Parcela&lt;/i&gt;" style="swimlane;fontStyle=1;align=center;verticalAlign=top;childLayout=stackLayout;horizontal=1;startSize=26;horizontalStack=0;resizeParent=1;resizeParentMax=0;resizeLast=0;collapsible=1;marginBottom=0;whiteSpace=wrap;html=1;" parent="1" vertex="1">
          <mxGeometry x="140" y="-680" width="345" height="306" as="geometry" />
        </mxCell>
        <mxCell id="H162WJ4VFneEVHFy4zlM-12" value="# fila: int&lt;br&gt;" style="text;strokeColor=none;fillColor=none;align=left;verticalAlign=top;spacingLeft=4;spacingRight=4;overflow=hidden;rotatable=0;points=[[0,0.5],[1,0.5]];portConstraint=eastwest;whiteSpace=wrap;html=1;" parent="H162WJ4VFneEVHFy4zlM-11" vertex="1">
          <mxGeometry y="26" width="345" height="26" as="geometry" />
        </mxCell>
        <mxCell id="H162WJ4VFneEVHFy4zlM-73" value="# columna: int" style="text;strokeColor=none;fillColor=none;align=left;verticalAlign=top;spacingLeft=4;spacingRight=4;overflow=hidden;rotatable=0;points=[[0,0.5],[1,0.5]];portConstraint=eastwest;whiteSpace=wrap;html=1;" parent="H162WJ4VFneEVHFy4zlM-11" vertex="1">
          <mxGeometry y="52" width="345" height="26" as="geometry" />
        </mxCell>
        <mxCell id="H162WJ4VFneEVHFy4zlM-13" value="" style="line;strokeWidth=1;fillColor=none;align=left;verticalAlign=middle;spacingTop=-1;spacingLeft=3;spacingRight=3;rotatable=0;labelPosition=right;points=[];portConstraint=eastwest;strokeColor=inherit;" parent="H162WJ4VFneEVHFy4zlM-11" vertex="1">
          <mxGeometry y="78" width="345" height="8" as="geometry" />
        </mxCell>
        <mxCell id="H162WJ4VFneEVHFy4zlM-14" value="&lt;i&gt;+ puedeAlojarTorre(): bool&lt;/i&gt;" style="text;strokeColor=none;fillColor=none;align=left;verticalAlign=top;spacingLeft=4;spacingRight=4;overflow=hidden;rotatable=0;points=[[0,0.5],[1,0.5]];portConstraint=eastwest;whiteSpace=wrap;html=1;" parent="H162WJ4VFneEVHFy4zlM-11" vertex="1">
          <mxGeometry y="86" width="345" height="26" as="geometry" />
        </mxCell>
        <mxCell id="jIkOqSR4Ub0WzB91D_wy-18" value="+ cantidadDeCreditosGenerados(): int" style="text;strokeColor=none;fillColor=none;align=left;verticalAlign=top;spacingLeft=4;spacingRight=4;overflow=hidden;rotatable=0;points=[[0,0.5],[1,0.5]];portConstraint=eastwest;whiteSpace=wrap;html=1;" parent="H162WJ4VFneEVHFy4zlM-11" vertex="1">
          <mxGeometry y="112" width="345" height="26" as="geometry" />
        </mxCell>
        <mxCell id="H162WJ4VFneEVHFy4zlM-71" value="&lt;i&gt;+ avanzarTurno(): void&lt;/i&gt;" style="text;strokeColor=none;fillColor=none;align=left;verticalAlign=top;spacingLeft=4;spacingRight=4;overflow=hidden;rotatable=0;points=[[0,0.5],[1,0.5]];portConstraint=eastwest;whiteSpace=wrap;html=1;" parent="H162WJ4VFneEVHFy4zlM-11" vertex="1">
          <mxGeometry y="138" width="345" height="26" as="geometry" />
        </mxCell>
        <mxCell id="dUkjWJWrrvQ80w0tsoIT-33" value="+ generarEnemigos(cantidadDeEnemigos: map&amp;lt;int&amp;gt;): void" style="text;strokeColor=none;fillColor=none;align=left;verticalAlign=top;spacingLeft=4;spacingRight=4;overflow=hidden;rotatable=0;points=[[0,0.5],[1,0.5]];portConstraint=eastwest;whiteSpace=wrap;html=1;" parent="H162WJ4VFneEVHFy4zlM-11" vertex="1">
          <mxGeometry y="164" width="345" height="26" as="geometry" />
        </mxCell>
        <mxCell id="hXK-8yscra5qIgaVrozL-11" value="+ recibirDaño(daño: int): void" style="text;strokeColor=none;fillColor=none;align=left;verticalAlign=top;spacingLeft=4;spacingRight=4;overflow=hidden;rotatable=0;points=[[0,0.5],[1,0.5]];portConstraint=eastwest;whiteSpace=wrap;html=1;" parent="H162WJ4VFneEVHFy4zlM-11" vertex="1">
          <mxGeometry y="190" width="345" height="26" as="geometry" />
        </mxCell>
        <mxCell id="dUkjWJWrrvQ80w0tsoIT-27" value="+ dañoGenerado(): int" style="text;strokeColor=none;fillColor=none;align=left;verticalAlign=top;spacingLeft=4;spacingRight=4;overflow=hidden;rotatable=0;points=[[0,0.5],[1,0.5]];portConstraint=eastwest;whiteSpace=wrap;html=1;" parent="H162WJ4VFneEVHFy4zlM-11" vertex="1">
          <mxGeometry y="216" width="345" height="26" as="geometry" />
        </mxCell>
        <mxCell id="dUkjWJWrrvQ80w0tsoIT-35" value="+ cantidadDeCreditosGenerados(recolectorDePuntos: Visitante): int" style="text;strokeColor=none;fillColor=none;align=left;verticalAlign=top;spacingLeft=4;spacingRight=4;overflow=hidden;rotatable=0;points=[[0,0.5],[1,0.5]];portConstraint=eastwest;whiteSpace=wrap;html=1;" parent="H162WJ4VFneEVHFy4zlM-11" vertex="1">
          <mxGeometry y="242" width="345" height="38" as="geometry" />
        </mxCell>
        <mxCell id="H162WJ4VFneEVHFy4zlM-74" value="&lt;i&gt;+ tieneEnemigos(): bool&lt;/i&gt;" style="text;strokeColor=none;fillColor=none;align=left;verticalAlign=top;spacingLeft=4;spacingRight=4;overflow=hidden;rotatable=0;points=[[0,0.5],[1,0.5]];portConstraint=eastwest;whiteSpace=wrap;html=1;" parent="H162WJ4VFneEVHFy4zlM-11" vertex="1">
          <mxGeometry y="280" width="345" height="26" as="geometry" />
        </mxCell>
        <mxCell id="H162WJ4VFneEVHFy4zlM-19" style="edgeStyle=orthogonalEdgeStyle;rounded=0;orthogonalLoop=1;jettySize=auto;html=1;endArrow=diamond;endFill=0;endSize=16;" parent="1" source="H162WJ4VFneEVHFy4zlM-15" target="2HHwii4UE3nNJhtwc6gf-23" edge="1">
          <mxGeometry relative="1" as="geometry">
            <Array as="points">
              <mxPoint x="515" y="-1480" />
            </Array>
          </mxGeometry>
        </mxCell>
        <mxCell id="dUkjWJWrrvQ80w0tsoIT-14" style="edgeStyle=orthogonalEdgeStyle;rounded=0;orthogonalLoop=1;jettySize=auto;html=1;endArrow=diamondThin;endFill=1;endSize=16;" parent="1" source="dUkjWJWrrvQ80w0tsoIT-9" target="H162WJ4VFneEVHFy4zlM-15" edge="1">
          <mxGeometry relative="1" as="geometry">
            <Array as="points">
              <mxPoint x="750" y="-280" />
              <mxPoint x="750" y="-931" />
            </Array>
          </mxGeometry>
        </mxCell>
        <mxCell id="wI3-Bf6nQ7sibrHFRUER-10" style="edgeStyle=orthogonalEdgeStyle;rounded=0;orthogonalLoop=1;jettySize=auto;html=1;endArrow=block;endFill=0;endSize=11;dashed=1;" parent="1" source="H162WJ4VFneEVHFy4zlM-15" target="wI3-Bf6nQ7sibrHFRUER-4" edge="1">
          <mxGeometry relative="1" as="geometry">
            <Array as="points">
              <mxPoint x="1520" y="-980" />
              <mxPoint x="1520" y="60" />
            </Array>
          </mxGeometry>
        </mxCell>
        <mxCell id="H162WJ4VFneEVHFy4zlM-15" value="Mapa" style="swimlane;fontStyle=1;align=center;verticalAlign=top;childLayout=stackLayout;horizontal=1;startSize=26;horizontalStack=0;resizeParent=1;resizeParentMax=0;resizeLast=0;collapsible=1;marginBottom=0;whiteSpace=wrap;html=1;" parent="1" vertex="1">
          <mxGeometry x="340" y="-1090" width="350" height="318" as="geometry" />
        </mxCell>
        <mxCell id="H162WJ4VFneEVHFy4zlM-17" value="" style="line;strokeWidth=1;fillColor=none;align=left;verticalAlign=middle;spacingTop=-1;spacingLeft=3;spacingRight=3;rotatable=0;labelPosition=right;points=[];portConstraint=eastwest;strokeColor=inherit;" parent="H162WJ4VFneEVHFy4zlM-15" vertex="1">
          <mxGeometry y="26" width="350" height="8" as="geometry" />
        </mxCell>
        <mxCell id="dUkjWJWrrvQ80w0tsoIT-5" value="+ Mapa(generacionDeParcelas: JSON): Mapa" style="text;strokeColor=none;fillColor=none;align=left;verticalAlign=top;spacingLeft=4;spacingRight=4;overflow=hidden;rotatable=0;points=[[0,0.5],[1,0.5]];portConstraint=eastwest;whiteSpace=wrap;html=1;" parent="H162WJ4VFneEVHFy4zlM-15" vertex="1">
          <mxGeometry y="34" width="350" height="26" as="geometry" />
        </mxCell>
        <mxCell id="dUkjWJWrrvQ80w0tsoIT-4" value="+ generarEnemigos(cantidadDeEnemigos: map&amp;lt;int&amp;gt;): void" style="text;strokeColor=none;fillColor=none;align=left;verticalAlign=top;spacingLeft=4;spacingRight=4;overflow=hidden;rotatable=0;points=[[0,0.5],[1,0.5]];portConstraint=eastwest;whiteSpace=wrap;html=1;" parent="H162WJ4VFneEVHFy4zlM-15" vertex="1">
          <mxGeometry y="60" width="350" height="26" as="geometry" />
        </mxCell>
        <mxCell id="H162WJ4VFneEVHFy4zlM-60" value="- obtenerParceña(fila: int, columna: int): Parcela" style="text;strokeColor=none;fillColor=none;align=left;verticalAlign=top;spacingLeft=4;spacingRight=4;overflow=hidden;rotatable=0;points=[[0,0.5],[1,0.5]];portConstraint=eastwest;whiteSpace=wrap;html=1;" parent="H162WJ4VFneEVHFy4zlM-15" vertex="1">
          <mxGeometry y="86" width="350" height="26" as="geometry" />
        </mxCell>
        <mxCell id="H162WJ4VFneEVHFy4zlM-63" value="-obtenerParcelasArea(radio: int, filaCentral, columnaCentral: int): array&amp;lt;Parcela&amp;gt;" style="text;strokeColor=none;fillColor=none;align=left;verticalAlign=top;spacingLeft=4;spacingRight=4;overflow=hidden;rotatable=0;points=[[0,0.5],[1,0.5]];portConstraint=eastwest;whiteSpace=wrap;html=1;" parent="H162WJ4VFneEVHFy4zlM-15" vertex="1">
          <mxGeometry y="112" width="350" height="50" as="geometry" />
        </mxCell>
        <mxCell id="H162WJ4VFneEVHFy4zlM-61" value="- puedoAlojarTorreEn(fila: int, columna: int): bool" style="text;strokeColor=none;fillColor=none;align=left;verticalAlign=top;spacingLeft=4;spacingRight=4;overflow=hidden;rotatable=0;points=[[0,0.5],[1,0.5]];portConstraint=eastwest;whiteSpace=wrap;html=1;" parent="H162WJ4VFneEVHFy4zlM-15" vertex="1">
          <mxGeometry y="162" width="350" height="26" as="geometry" />
        </mxCell>
        <mxCell id="H162WJ4VFneEVHFy4zlM-44" value="+ construir(torre: Torre, fila: int, columna: int): void" style="text;strokeColor=none;fillColor=none;align=left;verticalAlign=top;spacingLeft=4;spacingRight=4;overflow=hidden;rotatable=0;points=[[0,0.5],[1,0.5]];portConstraint=eastwest;whiteSpace=wrap;html=1;" parent="H162WJ4VFneEVHFy4zlM-15" vertex="1">
          <mxGeometry y="188" width="350" height="26" as="geometry" />
        </mxCell>
        <mxCell id="H162WJ4VFneEVHFy4zlM-80" value="+ avanzarTurno(): void" style="text;strokeColor=none;fillColor=none;align=left;verticalAlign=top;spacingLeft=4;spacingRight=4;overflow=hidden;rotatable=0;points=[[0,0.5],[1,0.5]];portConstraint=eastwest;whiteSpace=wrap;html=1;" parent="H162WJ4VFneEVHFy4zlM-15" vertex="1">
          <mxGeometry y="214" width="350" height="26" as="geometry" />
        </mxCell>
        <mxCell id="4BqtrfCsilX9TcQqH0R--13" value="- generarPasarela(): void" style="text;strokeColor=none;fillColor=none;align=left;verticalAlign=top;spacingLeft=4;spacingRight=4;overflow=hidden;rotatable=0;points=[[0,0.5],[1,0.5]];portConstraint=eastwest;whiteSpace=wrap;html=1;" parent="H162WJ4VFneEVHFy4zlM-15" vertex="1">
          <mxGeometry y="240" width="350" height="26" as="geometry" />
        </mxCell>
        <mxCell id="jIkOqSR4Ub0WzB91D_wy-17" value="+ creditosGenerados(): int" style="text;strokeColor=none;fillColor=none;align=left;verticalAlign=top;spacingLeft=4;spacingRight=4;overflow=hidden;rotatable=0;points=[[0,0.5],[1,0.5]];portConstraint=eastwest;whiteSpace=wrap;html=1;" parent="H162WJ4VFneEVHFy4zlM-15" vertex="1">
          <mxGeometry y="266" width="350" height="26" as="geometry" />
        </mxCell>
        <mxCell id="dUkjWJWrrvQ80w0tsoIT-3" value="+ dañoGeneradoEnTurno(): int" style="text;strokeColor=none;fillColor=none;align=left;verticalAlign=top;spacingLeft=4;spacingRight=4;overflow=hidden;rotatable=0;points=[[0,0.5],[1,0.5]];portConstraint=eastwest;whiteSpace=wrap;html=1;" parent="H162WJ4VFneEVHFy4zlM-15" vertex="1">
          <mxGeometry y="292" width="350" height="26" as="geometry" />
        </mxCell>
        <mxCell id="H162WJ4VFneEVHFy4zlM-28" style="edgeStyle=orthogonalEdgeStyle;rounded=0;orthogonalLoop=1;jettySize=auto;html=1;endArrow=block;endFill=0;endSize=11;" parent="1" source="H162WJ4VFneEVHFy4zlM-24" target="H162WJ4VFneEVHFy4zlM-11" edge="1">
          <mxGeometry relative="1" as="geometry">
            <Array as="points">
              <mxPoint x="300" y="-400" />
              <mxPoint x="300" y="-400" />
            </Array>
          </mxGeometry>
        </mxCell>
        <mxCell id="H162WJ4VFneEVHFy4zlM-24" value="Rocoso" style="swimlane;fontStyle=1;align=center;verticalAlign=top;childLayout=stackLayout;horizontal=1;startSize=26;horizontalStack=0;resizeParent=1;resizeParentMax=0;resizeLast=0;collapsible=1;marginBottom=0;whiteSpace=wrap;html=1;" parent="1" vertex="1">
          <mxGeometry x="190" y="-330" width="160" height="112" as="geometry" />
        </mxCell>
        <mxCell id="H162WJ4VFneEVHFy4zlM-26" value="" style="line;strokeWidth=1;fillColor=none;align=left;verticalAlign=middle;spacingTop=-1;spacingLeft=3;spacingRight=3;rotatable=0;labelPosition=right;points=[];portConstraint=eastwest;strokeColor=inherit;" parent="H162WJ4VFneEVHFy4zlM-24" vertex="1">
          <mxGeometry y="26" width="160" height="8" as="geometry" />
        </mxCell>
        <mxCell id="H162WJ4VFneEVHFy4zlM-27" value="+ puedeAlojarTorre(): bool" style="text;strokeColor=none;fillColor=none;align=left;verticalAlign=top;spacingLeft=4;spacingRight=4;overflow=hidden;rotatable=0;points=[[0,0.5],[1,0.5]];portConstraint=eastwest;whiteSpace=wrap;html=1;" parent="H162WJ4VFneEVHFy4zlM-24" vertex="1">
          <mxGeometry y="34" width="160" height="26" as="geometry" />
        </mxCell>
        <mxCell id="H162WJ4VFneEVHFy4zlM-76" value="+ tieneEnemigos(): bool" style="text;strokeColor=none;fillColor=none;align=left;verticalAlign=top;spacingLeft=4;spacingRight=4;overflow=hidden;rotatable=0;points=[[0,0.5],[1,0.5]];portConstraint=eastwest;whiteSpace=wrap;html=1;" parent="H162WJ4VFneEVHFy4zlM-24" vertex="1">
          <mxGeometry y="60" width="160" height="26" as="geometry" />
        </mxCell>
        <mxCell id="H162WJ4VFneEVHFy4zlM-77" value="+ avanzarTurno(): void" style="text;strokeColor=none;fillColor=none;align=left;verticalAlign=top;spacingLeft=4;spacingRight=4;overflow=hidden;rotatable=0;points=[[0,0.5],[1,0.5]];portConstraint=eastwest;whiteSpace=wrap;html=1;" parent="H162WJ4VFneEVHFy4zlM-24" vertex="1">
          <mxGeometry y="86" width="160" height="26" as="geometry" />
        </mxCell>
        <mxCell id="H162WJ4VFneEVHFy4zlM-32" style="edgeStyle=orthogonalEdgeStyle;rounded=0;orthogonalLoop=1;jettySize=auto;html=1;endArrow=block;endFill=0;endSize=11;" parent="1" source="H162WJ4VFneEVHFy4zlM-29" target="H162WJ4VFneEVHFy4zlM-11" edge="1">
          <mxGeometry relative="1" as="geometry">
            <Array as="points">
              <mxPoint x="30" y="-572" />
            </Array>
          </mxGeometry>
        </mxCell>
        <mxCell id="H162WJ4VFneEVHFy4zlM-52" style="edgeStyle=orthogonalEdgeStyle;rounded=0;orthogonalLoop=1;jettySize=auto;html=1;jumpStyle=arc;endArrow=diamond;endFill=0;endSize=16;" parent="1" source="H162WJ4VFneEVHFy4zlM-34" target="H162WJ4VFneEVHFy4zlM-29" edge="1">
          <mxGeometry relative="1" as="geometry">
            <Array as="points">
              <mxPoint x="-440" y="-290" />
            </Array>
          </mxGeometry>
        </mxCell>
        <mxCell id="H162WJ4VFneEVHFy4zlM-29" value="Tierra" style="swimlane;fontStyle=1;align=center;verticalAlign=top;childLayout=stackLayout;horizontal=1;startSize=26;horizontalStack=0;resizeParent=1;resizeParentMax=0;resizeLast=0;collapsible=1;marginBottom=0;whiteSpace=wrap;html=1;" parent="1" vertex="1">
          <mxGeometry x="-40" y="-343" width="160" height="138" as="geometry" />
        </mxCell>
        <mxCell id="H162WJ4VFneEVHFy4zlM-30" value="" style="line;strokeWidth=1;fillColor=none;align=left;verticalAlign=middle;spacingTop=-1;spacingLeft=3;spacingRight=3;rotatable=0;labelPosition=right;points=[];portConstraint=eastwest;strokeColor=inherit;" parent="H162WJ4VFneEVHFy4zlM-29" vertex="1">
          <mxGeometry y="26" width="160" height="8" as="geometry" />
        </mxCell>
        <mxCell id="H162WJ4VFneEVHFy4zlM-31" value="+ puedeAlojarTorre(): bool" style="text;strokeColor=none;fillColor=none;align=left;verticalAlign=top;spacingLeft=4;spacingRight=4;overflow=hidden;rotatable=0;points=[[0,0.5],[1,0.5]];portConstraint=eastwest;whiteSpace=wrap;html=1;" parent="H162WJ4VFneEVHFy4zlM-29" vertex="1">
          <mxGeometry y="34" width="160" height="26" as="geometry" />
        </mxCell>
        <mxCell id="H162WJ4VFneEVHFy4zlM-75" value="+ tieneEnemigos(): bool" style="text;strokeColor=none;fillColor=none;align=left;verticalAlign=top;spacingLeft=4;spacingRight=4;overflow=hidden;rotatable=0;points=[[0,0.5],[1,0.5]];portConstraint=eastwest;whiteSpace=wrap;html=1;" parent="H162WJ4VFneEVHFy4zlM-29" vertex="1">
          <mxGeometry y="60" width="160" height="26" as="geometry" />
        </mxCell>
        <mxCell id="H162WJ4VFneEVHFy4zlM-79" value="+ avanzarTurno(): void" style="text;strokeColor=none;fillColor=none;align=left;verticalAlign=top;spacingLeft=4;spacingRight=4;overflow=hidden;rotatable=0;points=[[0,0.5],[1,0.5]];portConstraint=eastwest;whiteSpace=wrap;html=1;" parent="H162WJ4VFneEVHFy4zlM-29" vertex="1">
          <mxGeometry y="86" width="160" height="26" as="geometry" />
        </mxCell>
        <mxCell id="H162WJ4VFneEVHFy4zlM-62" value="- atacarConTorre(): void" style="text;strokeColor=none;fillColor=none;align=left;verticalAlign=top;spacingLeft=4;spacingRight=4;overflow=hidden;rotatable=0;points=[[0,0.5],[1,0.5]];portConstraint=eastwest;whiteSpace=wrap;html=1;" parent="H162WJ4VFneEVHFy4zlM-29" vertex="1">
          <mxGeometry y="112" width="160" height="26" as="geometry" />
        </mxCell>
        <mxCell id="H162WJ4VFneEVHFy4zlM-51" style="edgeStyle=orthogonalEdgeStyle;rounded=0;orthogonalLoop=1;jettySize=auto;html=1;endArrow=diamond;endFill=0;endSize=16;" parent="1" source="H162WJ4VFneEVHFy4zlM-34" target="H162WJ4VFneEVHFy4zlM-47" edge="1">
          <mxGeometry relative="1" as="geometry" />
        </mxCell>
        <mxCell id="hXK-8yscra5qIgaVrozL-2" style="edgeStyle=orthogonalEdgeStyle;rounded=0;orthogonalLoop=1;jettySize=auto;html=1;endArrow=block;endFill=0;endSize=11;dashed=1;" parent="1" source="H162WJ4VFneEVHFy4zlM-34" target="jIkOqSR4Ub0WzB91D_wy-3" edge="1">
          <mxGeometry relative="1" as="geometry" />
        </mxCell>
        <mxCell id="dUkjWJWrrvQ80w0tsoIT-21" style="edgeStyle=orthogonalEdgeStyle;rounded=0;orthogonalLoop=1;jettySize=auto;html=1;dashed=1;endArrow=open;endFill=0;endSize=16;" parent="1" source="H162WJ4VFneEVHFy4zlM-34" target="H162WJ4VFneEVHFy4zlM-15" edge="1">
          <mxGeometry relative="1" as="geometry">
            <Array as="points">
              <mxPoint x="-70" y="-598" />
              <mxPoint x="-70" y="-730" />
              <mxPoint x="515" y="-730" />
            </Array>
          </mxGeometry>
        </mxCell>
        <mxCell id="H162WJ4VFneEVHFy4zlM-34" value="Torre" style="swimlane;fontStyle=1;align=center;verticalAlign=top;childLayout=stackLayout;horizontal=1;startSize=26;horizontalStack=0;resizeParent=1;resizeParentMax=0;resizeLast=0;collapsible=1;marginBottom=0;whiteSpace=wrap;html=1;" parent="1" vertex="1">
          <mxGeometry x="-600" y="-806" width="240" height="416" as="geometry" />
        </mxCell>
        <mxCell id="H162WJ4VFneEVHFy4zlM-35" value="- costo: int" style="text;strokeColor=none;fillColor=none;align=left;verticalAlign=top;spacingLeft=4;spacingRight=4;overflow=hidden;rotatable=0;points=[[0,0.5],[1,0.5]];portConstraint=eastwest;whiteSpace=wrap;html=1;" parent="H162WJ4VFneEVHFy4zlM-34" vertex="1">
          <mxGeometry y="26" width="240" height="26" as="geometry" />
        </mxCell>
        <mxCell id="H162WJ4VFneEVHFy4zlM-40" value="- turnosParaConstruirse: int" style="text;strokeColor=none;fillColor=none;align=left;verticalAlign=top;spacingLeft=4;spacingRight=4;overflow=hidden;rotatable=0;points=[[0,0.5],[1,0.5]];portConstraint=eastwest;whiteSpace=wrap;html=1;" parent="H162WJ4VFneEVHFy4zlM-34" vertex="1">
          <mxGeometry y="52" width="240" height="26" as="geometry" />
        </mxCell>
        <mxCell id="H162WJ4VFneEVHFy4zlM-39" value="- daño: int" style="text;strokeColor=none;fillColor=none;align=left;verticalAlign=top;spacingLeft=4;spacingRight=4;overflow=hidden;rotatable=0;points=[[0,0.5],[1,0.5]];portConstraint=eastwest;whiteSpace=wrap;html=1;" parent="H162WJ4VFneEVHFy4zlM-34" vertex="1">
          <mxGeometry y="78" width="240" height="26" as="geometry" />
        </mxCell>
        <mxCell id="H162WJ4VFneEVHFy4zlM-38" value="- rango: int" style="text;strokeColor=none;fillColor=none;align=left;verticalAlign=top;spacingLeft=4;spacingRight=4;overflow=hidden;rotatable=0;points=[[0,0.5],[1,0.5]];portConstraint=eastwest;whiteSpace=wrap;html=1;" parent="H162WJ4VFneEVHFy4zlM-34" vertex="1">
          <mxGeometry y="104" width="240" height="26" as="geometry" />
        </mxCell>
        <mxCell id="H162WJ4VFneEVHFy4zlM-64" value="- tipo: string" style="text;strokeColor=none;fillColor=none;align=left;verticalAlign=top;spacingLeft=4;spacingRight=4;overflow=hidden;rotatable=0;points=[[0,0.5],[1,0.5]];portConstraint=eastwest;whiteSpace=wrap;html=1;" parent="H162WJ4VFneEVHFy4zlM-34" vertex="1">
          <mxGeometry y="130" width="240" height="26" as="geometry" />
        </mxCell>
        <mxCell id="H162WJ4VFneEVHFy4zlM-36" value="" style="line;strokeWidth=1;fillColor=none;align=left;verticalAlign=middle;spacingTop=-1;spacingLeft=3;spacingRight=3;rotatable=0;labelPosition=right;points=[];portConstraint=eastwest;strokeColor=inherit;" parent="H162WJ4VFneEVHFy4zlM-34" vertex="1">
          <mxGeometry y="156" width="240" height="8" as="geometry" />
        </mxCell>
        <mxCell id="H162WJ4VFneEVHFy4zlM-46" value="+ puedoConstruirConCreditos(creditos: int)" style="text;strokeColor=none;fillColor=none;align=left;verticalAlign=top;spacingLeft=4;spacingRight=4;overflow=hidden;rotatable=0;points=[[0,0.5],[1,0.5]];portConstraint=eastwest;whiteSpace=wrap;html=1;" parent="H162WJ4VFneEVHFy4zlM-34" vertex="1">
          <mxGeometry y="164" width="240" height="42" as="geometry" />
        </mxCell>
        <mxCell id="H162WJ4VFneEVHFy4zlM-70" value="+ costo(): int" style="text;strokeColor=none;fillColor=none;align=left;verticalAlign=top;spacingLeft=4;spacingRight=4;overflow=hidden;rotatable=0;points=[[0,0.5],[1,0.5]];portConstraint=eastwest;whiteSpace=wrap;html=1;" parent="H162WJ4VFneEVHFy4zlM-34" vertex="1">
          <mxGeometry y="206" width="240" height="42" as="geometry" />
        </mxCell>
        <mxCell id="H162WJ4VFneEVHFy4zlM-65" value="+ sosDeTipo(tipoTorre: string): bool" style="text;strokeColor=none;fillColor=none;align=left;verticalAlign=top;spacingLeft=4;spacingRight=4;overflow=hidden;rotatable=0;points=[[0,0.5],[1,0.5]];portConstraint=eastwest;whiteSpace=wrap;html=1;" parent="H162WJ4VFneEVHFy4zlM-34" vertex="1">
          <mxGeometry y="248" width="240" height="42" as="geometry" />
        </mxCell>
        <mxCell id="H162WJ4VFneEVHFy4zlM-37" value="+ disminuirTurnoParaConstruirse(): void" style="text;strokeColor=none;fillColor=none;align=left;verticalAlign=top;spacingLeft=4;spacingRight=4;overflow=hidden;rotatable=0;points=[[0,0.5],[1,0.5]];portConstraint=eastwest;whiteSpace=wrap;html=1;" parent="H162WJ4VFneEVHFy4zlM-34" vertex="1">
          <mxGeometry y="290" width="240" height="42" as="geometry" />
        </mxCell>
        <mxCell id="H162WJ4VFneEVHFy4zlM-41" value="+ construirse(): void" style="text;strokeColor=none;fillColor=none;align=left;verticalAlign=top;spacingLeft=4;spacingRight=4;overflow=hidden;rotatable=0;points=[[0,0.5],[1,0.5]];portConstraint=eastwest;whiteSpace=wrap;html=1;" parent="H162WJ4VFneEVHFy4zlM-34" vertex="1">
          <mxGeometry y="332" width="240" height="42" as="geometry" />
        </mxCell>
        <mxCell id="H162WJ4VFneEVHFy4zlM-72" value="+ atacar(mapa: Mapa, fila: int, columna: int): void" style="text;strokeColor=none;fillColor=none;align=left;verticalAlign=top;spacingLeft=4;spacingRight=4;overflow=hidden;rotatable=0;points=[[0,0.5],[1,0.5]];portConstraint=eastwest;whiteSpace=wrap;html=1;" parent="H162WJ4VFneEVHFy4zlM-34" vertex="1">
          <mxGeometry y="374" width="240" height="42" as="geometry" />
        </mxCell>
        <mxCell id="4BqtrfCsilX9TcQqH0R--15" style="edgeStyle=orthogonalEdgeStyle;rounded=0;orthogonalLoop=1;jettySize=auto;html=1;endArrow=diamond;endFill=0;endSize=16;jumpStyle=arc;" parent="1" source="H162WJ4VFneEVHFy4zlM-47" target="2HHwii4UE3nNJhtwc6gf-23" edge="1">
          <mxGeometry relative="1" as="geometry">
            <mxPoint x="1090" y="-540" as="targetPoint" />
            <Array as="points">
              <mxPoint x="-320" y="-1470" />
            </Array>
          </mxGeometry>
        </mxCell>
        <mxCell id="H162WJ4VFneEVHFy4zlM-47" value="Constructor" style="swimlane;fontStyle=1;align=center;verticalAlign=top;childLayout=stackLayout;horizontal=1;startSize=26;horizontalStack=0;resizeParent=1;resizeParentMax=0;resizeLast=0;collapsible=1;marginBottom=0;whiteSpace=wrap;html=1;" parent="1" vertex="1">
          <mxGeometry x="-500" y="-1040" width="360" height="86" as="geometry" />
        </mxCell>
        <mxCell id="H162WJ4VFneEVHFy4zlM-49" value="" style="line;strokeWidth=1;fillColor=none;align=left;verticalAlign=middle;spacingTop=-1;spacingLeft=3;spacingRight=3;rotatable=0;labelPosition=right;points=[];portConstraint=eastwest;strokeColor=inherit;" parent="H162WJ4VFneEVHFy4zlM-47" vertex="1">
          <mxGeometry y="26" width="360" height="8" as="geometry" />
        </mxCell>
        <mxCell id="H162WJ4VFneEVHFy4zlM-50" value="+ puedoConstruirConCreditos(tipoTorre: string, creditos: int): bool" style="text;strokeColor=none;fillColor=none;align=left;verticalAlign=top;spacingLeft=4;spacingRight=4;overflow=hidden;rotatable=0;points=[[0,0.5],[1,0.5]];portConstraint=eastwest;whiteSpace=wrap;html=1;" parent="H162WJ4VFneEVHFy4zlM-47" vertex="1">
          <mxGeometry y="34" width="360" height="26" as="geometry" />
        </mxCell>
        <mxCell id="H162WJ4VFneEVHFy4zlM-68" value="+ obtenerTorre(tipoTorre: string): Torre" style="text;strokeColor=none;fillColor=none;align=left;verticalAlign=top;spacingLeft=4;spacingRight=4;overflow=hidden;rotatable=0;points=[[0,0.5],[1,0.5]];portConstraint=eastwest;whiteSpace=wrap;html=1;" parent="H162WJ4VFneEVHFy4zlM-47" vertex="1">
          <mxGeometry y="60" width="360" height="26" as="geometry" />
        </mxCell>
        <mxCell id="H162WJ4VFneEVHFy4zlM-94" style="edgeStyle=orthogonalEdgeStyle;rounded=0;orthogonalLoop=1;jettySize=auto;html=1;endArrow=block;endFill=0;endSize=11;" parent="1" source="H162WJ4VFneEVHFy4zlM-82" target="2HHwii4UE3nNJhtwc6gf-10" edge="1">
          <mxGeometry relative="1" as="geometry" />
        </mxCell>
        <mxCell id="H162WJ4VFneEVHFy4zlM-82" value="PasarelaLlegada" style="swimlane;fontStyle=1;align=center;verticalAlign=top;childLayout=stackLayout;horizontal=1;startSize=26;horizontalStack=0;resizeParent=1;resizeParentMax=0;resizeLast=0;collapsible=1;marginBottom=0;whiteSpace=wrap;html=1;" parent="1" vertex="1">
          <mxGeometry x="750" y="60" width="200" height="94" as="geometry" />
        </mxCell>
        <mxCell id="H162WJ4VFneEVHFy4zlM-84" value="" style="line;strokeWidth=1;fillColor=none;align=left;verticalAlign=middle;spacingTop=-1;spacingLeft=3;spacingRight=3;rotatable=0;labelPosition=right;points=[];portConstraint=eastwest;strokeColor=inherit;" parent="H162WJ4VFneEVHFy4zlM-82" vertex="1">
          <mxGeometry y="26" width="200" height="8" as="geometry" />
        </mxCell>
        <mxCell id="H162WJ4VFneEVHFy4zlM-86" value="+ avanzarTurno(): void" style="text;strokeColor=none;fillColor=none;align=left;verticalAlign=top;spacingLeft=4;spacingRight=4;overflow=hidden;rotatable=0;points=[[0,0.5],[1,0.5]];portConstraint=eastwest;whiteSpace=wrap;html=1;" parent="H162WJ4VFneEVHFy4zlM-82" vertex="1">
          <mxGeometry y="34" width="200" height="30" as="geometry" />
        </mxCell>
        <mxCell id="H162WJ4VFneEVHFy4zlM-90" value="+ dañoGenerado(): int" style="text;strokeColor=none;fillColor=none;align=left;verticalAlign=top;spacingLeft=4;spacingRight=4;overflow=hidden;rotatable=0;points=[[0,0.5],[1,0.5]];portConstraint=eastwest;whiteSpace=wrap;html=1;" parent="H162WJ4VFneEVHFy4zlM-82" vertex="1">
          <mxGeometry y="64" width="200" height="30" as="geometry" />
        </mxCell>
        <mxCell id="H162WJ4VFneEVHFy4zlM-99" style="edgeStyle=orthogonalEdgeStyle;rounded=0;orthogonalLoop=1;jettySize=auto;html=1;endArrow=block;endFill=0;endSize=11;" parent="1" source="H162WJ4VFneEVHFy4zlM-95" target="2HHwii4UE3nNJhtwc6gf-10" edge="1">
          <mxGeometry relative="1" as="geometry" />
        </mxCell>
        <mxCell id="H162WJ4VFneEVHFy4zlM-95" value="PasarelaSalida" style="swimlane;fontStyle=1;align=center;verticalAlign=top;childLayout=stackLayout;horizontal=1;startSize=26;horizontalStack=0;resizeParent=1;resizeParentMax=0;resizeLast=0;collapsible=1;marginBottom=0;whiteSpace=wrap;html=1;" parent="1" vertex="1">
          <mxGeometry x="750" y="180" width="260" height="94" as="geometry" />
        </mxCell>
        <mxCell id="H162WJ4VFneEVHFy4zlM-96" value="" style="line;strokeWidth=1;fillColor=none;align=left;verticalAlign=middle;spacingTop=-1;spacingLeft=3;spacingRight=3;rotatable=0;labelPosition=right;points=[];portConstraint=eastwest;strokeColor=inherit;" parent="H162WJ4VFneEVHFy4zlM-95" vertex="1">
          <mxGeometry y="26" width="260" height="8" as="geometry" />
        </mxCell>
        <mxCell id="H162WJ4VFneEVHFy4zlM-97" value="+ avanzarTurno(): void" style="text;strokeColor=none;fillColor=none;align=left;verticalAlign=top;spacingLeft=4;spacingRight=4;overflow=hidden;rotatable=0;points=[[0,0.5],[1,0.5]];portConstraint=eastwest;whiteSpace=wrap;html=1;" parent="H162WJ4VFneEVHFy4zlM-95" vertex="1">
          <mxGeometry y="34" width="260" height="30" as="geometry" />
        </mxCell>
        <mxCell id="H162WJ4VFneEVHFy4zlM-98" value="- generarEnemigos(enemigos: JSON)" style="text;strokeColor=none;fillColor=none;align=left;verticalAlign=top;spacingLeft=4;spacingRight=4;overflow=hidden;rotatable=0;points=[[0,0.5],[1,0.5]];portConstraint=eastwest;whiteSpace=wrap;html=1;" parent="H162WJ4VFneEVHFy4zlM-95" vertex="1">
          <mxGeometry y="64" width="260" height="30" as="geometry" />
        </mxCell>
        <mxCell id="jIkOqSR4Ub0WzB91D_wy-3" value="&amp;lt;&amp;lt;interfaz&amp;gt;&amp;gt; Atacante" style="swimlane;fontStyle=0;childLayout=stackLayout;horizontal=1;startSize=26;fillColor=none;horizontalStack=0;resizeParent=1;resizeParentMax=0;resizeLast=0;collapsible=1;marginBottom=0;whiteSpace=wrap;html=1;" parent="1" vertex="1">
          <mxGeometry x="-840" y="-182" width="300" height="52" as="geometry" />
        </mxCell>
        <mxCell id="jIkOqSR4Ub0WzB91D_wy-6" value="+ causarDaño(dañable: Dañable, daño: int): void" style="text;strokeColor=none;fillColor=none;align=left;verticalAlign=top;spacingLeft=4;spacingRight=4;overflow=hidden;rotatable=0;points=[[0,0.5],[1,0.5]];portConstraint=eastwest;whiteSpace=wrap;html=1;" parent="jIkOqSR4Ub0WzB91D_wy-3" vertex="1">
          <mxGeometry y="26" width="300" height="26" as="geometry" />
        </mxCell>
        <mxCell id="jIkOqSR4Ub0WzB91D_wy-7" value="&amp;lt;&amp;lt;interfaz&amp;gt;&amp;gt; Dañable" style="swimlane;fontStyle=0;childLayout=stackLayout;horizontal=1;startSize=26;fillColor=none;horizontalStack=0;resizeParent=1;resizeParentMax=0;resizeLast=0;collapsible=1;marginBottom=0;whiteSpace=wrap;html=1;" parent="1" vertex="1">
          <mxGeometry x="-750" y="122" width="200" height="52" as="geometry" />
        </mxCell>
        <mxCell id="jIkOqSR4Ub0WzB91D_wy-8" value="+ recibirDaño(daño: int): void" style="text;strokeColor=none;fillColor=none;align=left;verticalAlign=top;spacingLeft=4;spacingRight=4;overflow=hidden;rotatable=0;points=[[0,0.5],[1,0.5]];portConstraint=eastwest;whiteSpace=wrap;html=1;" parent="jIkOqSR4Ub0WzB91D_wy-7" vertex="1">
          <mxGeometry y="26" width="200" height="26" as="geometry" />
        </mxCell>
        <mxCell id="hXK-8yscra5qIgaVrozL-7" style="edgeStyle=orthogonalEdgeStyle;rounded=0;orthogonalLoop=1;jettySize=auto;html=1;endArrow=block;endFill=0;endSize=11;dashed=1;jumpStyle=arc;" parent="1" source="2HHwii4UE3nNJhtwc6gf-38" target="jIkOqSR4Ub0WzB91D_wy-7" edge="1">
          <mxGeometry relative="1" as="geometry">
            <Array as="points">
              <mxPoint y="-360" />
              <mxPoint x="-390" y="-360" />
              <mxPoint x="-390" y="90" />
              <mxPoint x="-650" y="90" />
            </Array>
          </mxGeometry>
        </mxCell>
        <mxCell id="dUkjWJWrrvQ80w0tsoIT-6" value="Acá interviene el usuario diciendo, en principio, si quiere construir algo, y luego, qué quiere construir" style="shape=note;whiteSpace=wrap;html=1;backgroundOutline=1;darkOpacity=0.05;size=17;" parent="1" vertex="1">
          <mxGeometry x="305" y="-1425" width="130" height="150" as="geometry" />
        </mxCell>
        <mxCell id="dUkjWJWrrvQ80w0tsoIT-7" style="edgeStyle=orthogonalEdgeStyle;rounded=0;orthogonalLoop=1;jettySize=auto;html=1;dashed=1;endArrow=none;endFill=0;" parent="1" source="dUkjWJWrrvQ80w0tsoIT-2" target="dUkjWJWrrvQ80w0tsoIT-6" edge="1">
          <mxGeometry relative="1" as="geometry">
            <Array as="points">
              <mxPoint x="160" y="-1380" />
              <mxPoint x="160" y="-1380" />
            </Array>
          </mxGeometry>
        </mxCell>
        <mxCell id="dUkjWJWrrvQ80w0tsoIT-19" style="edgeStyle=orthogonalEdgeStyle;rounded=0;orthogonalLoop=1;jettySize=auto;html=1;endArrow=block;endFill=0;endSize=11;dashed=1;" parent="1" source="dUkjWJWrrvQ80w0tsoIT-9" target="dUkjWJWrrvQ80w0tsoIT-15" edge="1">
          <mxGeometry relative="1" as="geometry">
            <Array as="points">
              <mxPoint x="930" y="-810" />
              <mxPoint x="930" y="-810" />
            </Array>
          </mxGeometry>
        </mxCell>
        <mxCell id="dUkjWJWrrvQ80w0tsoIT-9" value="recolectorDePuntos" style="swimlane;fontStyle=1;align=center;verticalAlign=top;childLayout=stackLayout;horizontal=1;startSize=26;horizontalStack=0;resizeParent=1;resizeParentMax=0;resizeLast=0;collapsible=1;marginBottom=0;whiteSpace=wrap;html=1;" parent="1" vertex="1">
          <mxGeometry x="820" y="-330" width="220" height="112" as="geometry" />
        </mxCell>
        <mxCell id="dUkjWJWrrvQ80w0tsoIT-10" value="+ hormigasMuertas: int" style="text;strokeColor=none;fillColor=none;align=left;verticalAlign=top;spacingLeft=4;spacingRight=4;overflow=hidden;rotatable=0;points=[[0,0.5],[1,0.5]];portConstraint=eastwest;whiteSpace=wrap;html=1;" parent="dUkjWJWrrvQ80w0tsoIT-9" vertex="1">
          <mxGeometry y="26" width="220" height="26" as="geometry" />
        </mxCell>
        <mxCell id="dUkjWJWrrvQ80w0tsoIT-11" value="" style="line;strokeWidth=1;fillColor=none;align=left;verticalAlign=middle;spacingTop=-1;spacingLeft=3;spacingRight=3;rotatable=0;labelPosition=right;points=[];portConstraint=eastwest;strokeColor=inherit;" parent="dUkjWJWrrvQ80w0tsoIT-9" vertex="1">
          <mxGeometry y="52" width="220" height="8" as="geometry" />
        </mxCell>
        <mxCell id="dUkjWJWrrvQ80w0tsoIT-12" value="+ visitar(hormiga: Hormiga): void" style="text;strokeColor=none;fillColor=none;align=left;verticalAlign=top;spacingLeft=4;spacingRight=4;overflow=hidden;rotatable=0;points=[[0,0.5],[1,0.5]];portConstraint=eastwest;whiteSpace=wrap;html=1;" parent="dUkjWJWrrvQ80w0tsoIT-9" vertex="1">
          <mxGeometry y="60" width="220" height="26" as="geometry" />
        </mxCell>
        <mxCell id="dUkjWJWrrvQ80w0tsoIT-13" value="+ visitar(araña: Araña): void" style="text;strokeColor=none;fillColor=none;align=left;verticalAlign=top;spacingLeft=4;spacingRight=4;overflow=hidden;rotatable=0;points=[[0,0.5],[1,0.5]];portConstraint=eastwest;whiteSpace=wrap;html=1;" parent="dUkjWJWrrvQ80w0tsoIT-9" vertex="1">
          <mxGeometry y="86" width="220" height="26" as="geometry" />
        </mxCell>
        <mxCell id="dUkjWJWrrvQ80w0tsoIT-15" value="&amp;lt;&amp;lt;interface&amp;gt;&amp;gt; Visitante" style="swimlane;fontStyle=0;childLayout=stackLayout;horizontal=1;startSize=26;fillColor=none;horizontalStack=0;resizeParent=1;resizeParentMax=0;resizeLast=0;collapsible=1;marginBottom=0;whiteSpace=wrap;html=1;" parent="1" vertex="1">
          <mxGeometry x="845" y="-1150" width="190" height="78" as="geometry" />
        </mxCell>
        <mxCell id="dUkjWJWrrvQ80w0tsoIT-16" value="+ visitar(hormiga: Hormiga): void" style="text;strokeColor=none;fillColor=none;align=left;verticalAlign=top;spacingLeft=4;spacingRight=4;overflow=hidden;rotatable=0;points=[[0,0.5],[1,0.5]];portConstraint=eastwest;whiteSpace=wrap;html=1;" parent="dUkjWJWrrvQ80w0tsoIT-15" vertex="1">
          <mxGeometry y="26" width="190" height="26" as="geometry" />
        </mxCell>
        <mxCell id="dUkjWJWrrvQ80w0tsoIT-17" value="+ visitar(araña: Araña): void" style="text;strokeColor=none;fillColor=none;align=left;verticalAlign=top;spacingLeft=4;spacingRight=4;overflow=hidden;rotatable=0;points=[[0,0.5],[1,0.5]];portConstraint=eastwest;whiteSpace=wrap;html=1;" parent="dUkjWJWrrvQ80w0tsoIT-15" vertex="1">
          <mxGeometry y="52" width="190" height="26" as="geometry" />
        </mxCell>
        <mxCell id="dUkjWJWrrvQ80w0tsoIT-22" value="&amp;lt;&amp;lt;interface&amp;gt;&amp;gt; Receptor" style="swimlane;fontStyle=0;childLayout=stackLayout;horizontal=1;startSize=26;fillColor=none;horizontalStack=0;resizeParent=1;resizeParentMax=0;resizeLast=0;collapsible=1;marginBottom=0;whiteSpace=wrap;html=1;" parent="1" vertex="1">
          <mxGeometry x="1120" y="-170" width="210" height="52" as="geometry" />
        </mxCell>
        <mxCell id="dUkjWJWrrvQ80w0tsoIT-23" value="+ aceptar(visitante: Visitante): void" style="text;strokeColor=none;fillColor=none;align=left;verticalAlign=top;spacingLeft=4;spacingRight=4;overflow=hidden;rotatable=0;points=[[0,0.5],[1,0.5]];portConstraint=eastwest;whiteSpace=wrap;html=1;" parent="dUkjWJWrrvQ80w0tsoIT-22" vertex="1">
          <mxGeometry y="26" width="210" height="26" as="geometry" />
        </mxCell>
        <mxCell id="dUkjWJWrrvQ80w0tsoIT-29" style="edgeStyle=orthogonalEdgeStyle;rounded=0;orthogonalLoop=1;jettySize=auto;html=1;endArrow=none;dashed=1;endFill=0;" parent="1" source="dUkjWJWrrvQ80w0tsoIT-28" target="hXK-8yscra5qIgaVrozL-11" edge="1">
          <mxGeometry relative="1" as="geometry">
            <Array as="points">
              <mxPoint x="500" y="-480" />
              <mxPoint x="500" y="-480" />
            </Array>
          </mxGeometry>
        </mxCell>
        <mxCell id="dUkjWJWrrvQ80w0tsoIT-28" value="Por defecto, no hace nada." style="shape=note;whiteSpace=wrap;html=1;backgroundOutline=1;darkOpacity=0.05;size=17;" parent="1" vertex="1">
          <mxGeometry x="570" y="-520" width="130" height="60" as="geometry" />
        </mxCell>
        <mxCell id="dUkjWJWrrvQ80w0tsoIT-32" style="edgeStyle=orthogonalEdgeStyle;rounded=0;orthogonalLoop=1;jettySize=auto;html=1;endArrow=none;dashed=1;endFill=0;" parent="1" source="dUkjWJWrrvQ80w0tsoIT-31" target="dUkjWJWrrvQ80w0tsoIT-27" edge="1">
          <mxGeometry relative="1" as="geometry">
            <mxPoint x="360" y="-477" as="targetPoint" />
            <Array as="points">
              <mxPoint x="540" y="-408" />
              <mxPoint x="540" y="-460" />
            </Array>
          </mxGeometry>
        </mxCell>
        <mxCell id="dUkjWJWrrvQ80w0tsoIT-31" value="Por defecto, devuelve 0" style="shape=note;whiteSpace=wrap;html=1;backgroundOutline=1;darkOpacity=0.05;size=17;" parent="1" vertex="1">
          <mxGeometry x="570" y="-438" width="140" height="60" as="geometry" />
        </mxCell>
        <mxCell id="dUkjWJWrrvQ80w0tsoIT-34" style="edgeStyle=orthogonalEdgeStyle;rounded=0;orthogonalLoop=1;jettySize=auto;html=1;endArrow=none;dashed=1;endFill=0;" parent="1" source="dUkjWJWrrvQ80w0tsoIT-33" target="dUkjWJWrrvQ80w0tsoIT-28" edge="1">
          <mxGeometry relative="1" as="geometry" />
        </mxCell>
        <mxCell id="wI3-Bf6nQ7sibrHFRUER-3" style="edgeStyle=orthogonalEdgeStyle;rounded=0;orthogonalLoop=1;jettySize=auto;html=1;endArrow=none;dashed=1;endFill=0;" parent="1" source="wI3-Bf6nQ7sibrHFRUER-2" target="wI3-Bf6nQ7sibrHFRUER-1" edge="1">
          <mxGeometry relative="1" as="geometry" />
        </mxCell>
        <mxCell id="wI3-Bf6nQ7sibrHFRUER-2" value="Perdido, En Juego o Ganado" style="shape=note;whiteSpace=wrap;html=1;backgroundOutline=1;darkOpacity=0.05;size=17;" parent="1" vertex="1">
          <mxGeometry x="-250" y="-1380" width="130" height="90" as="geometry" />
        </mxCell>
        <mxCell id="wI3-Bf6nQ7sibrHFRUER-4" value="&amp;lt;&amp;lt;interface&amp;gt;&amp;gt; conTurno" style="swimlane;fontStyle=0;childLayout=stackLayout;horizontal=1;startSize=26;fillColor=none;horizontalStack=0;resizeParent=1;resizeParentMax=0;resizeLast=0;collapsible=1;marginBottom=0;whiteSpace=wrap;html=1;" parent="1" vertex="1">
          <mxGeometry x="1220" y="20" width="140" height="52" as="geometry" />
        </mxCell>
        <mxCell id="wI3-Bf6nQ7sibrHFRUER-5" value="+ avanzarTurno(): void" style="text;strokeColor=none;fillColor=none;align=left;verticalAlign=top;spacingLeft=4;spacingRight=4;overflow=hidden;rotatable=0;points=[[0,0.5],[1,0.5]];portConstraint=eastwest;whiteSpace=wrap;html=1;" parent="wI3-Bf6nQ7sibrHFRUER-4" vertex="1">
          <mxGeometry y="26" width="140" height="26" as="geometry" />
        </mxCell>
        <mxCell id="EUJ_bRl5U1kdOAhy5BK1-1" value="1" style="text;html=1;align=center;verticalAlign=middle;resizable=0;points=[];autosize=1;strokeColor=none;fillColor=none;" vertex="1" parent="1">
          <mxGeometry x="355" y="98" width="30" height="30" as="geometry" />
        </mxCell>
        <mxCell id="EUJ_bRl5U1kdOAhy5BK1-2" value="0..*" style="text;html=1;align=center;verticalAlign=middle;resizable=0;points=[];autosize=1;strokeColor=none;fillColor=none;" vertex="1" parent="1">
          <mxGeometry x="275" y="98" width="40" height="30" as="geometry" />
        </mxCell>
        <mxCell id="EUJ_bRl5U1kdOAhy5BK1-3" value="0..1" style="text;html=1;align=center;verticalAlign=middle;resizable=0;points=[];autosize=1;strokeColor=none;fillColor=none;" vertex="1" parent="1">
          <mxGeometry x="-440" y="-390" width="40" height="30" as="geometry" />
        </mxCell>
        <mxCell id="EUJ_bRl5U1kdOAhy5BK1-4" value="1" style="text;html=1;align=center;verticalAlign=middle;resizable=0;points=[];autosize=1;strokeColor=none;fillColor=none;" vertex="1" parent="1">
          <mxGeometry x="-80" y="-330" width="30" height="30" as="geometry" />
        </mxCell>
        <mxCell id="EUJ_bRl5U1kdOAhy5BK1-5" value="1" style="text;html=1;align=center;verticalAlign=middle;resizable=0;points=[];autosize=1;strokeColor=none;fillColor=none;" vertex="1" parent="1">
          <mxGeometry x="-310" y="-954" width="30" height="30" as="geometry" />
        </mxCell>
        <mxCell id="EUJ_bRl5U1kdOAhy5BK1-6" value="0..*" style="text;html=1;align=center;verticalAlign=middle;resizable=0;points=[];autosize=1;strokeColor=none;fillColor=none;" vertex="1" parent="1">
          <mxGeometry x="-475" y="-840" width="40" height="30" as="geometry" />
        </mxCell>
        <mxCell id="EUJ_bRl5U1kdOAhy5BK1-7" value="1" style="text;html=1;align=center;verticalAlign=middle;resizable=0;points=[];autosize=1;strokeColor=none;fillColor=none;" vertex="1" parent="1">
          <mxGeometry x="-100" y="-1500" width="30" height="30" as="geometry" />
        </mxCell>
        <mxCell id="EUJ_bRl5U1kdOAhy5BK1-8" value="0..*" style="text;html=1;align=center;verticalAlign=middle;resizable=0;points=[];autosize=1;strokeColor=none;fillColor=none;" vertex="1" parent="1">
          <mxGeometry x="-320" y="-1072" width="40" height="30" as="geometry" />
        </mxCell>
        <mxCell id="EUJ_bRl5U1kdOAhy5BK1-10" value="1" style="text;html=1;align=center;verticalAlign=middle;resizable=0;points=[];autosize=1;strokeColor=none;fillColor=none;" vertex="1" parent="1">
          <mxGeometry x="120" y="-1340" width="30" height="30" as="geometry" />
        </mxCell>
        <mxCell id="EUJ_bRl5U1kdOAhy5BK1-11" value="1" style="text;html=1;align=center;verticalAlign=middle;resizable=0;points=[];autosize=1;strokeColor=none;fillColor=none;" vertex="1" parent="1">
          <mxGeometry x="255" y="-1520" width="30" height="30" as="geometry" />
        </mxCell>
        <mxCell id="EUJ_bRl5U1kdOAhy5BK1-12" value="1" style="text;html=1;align=center;verticalAlign=middle;resizable=0;points=[];autosize=1;strokeColor=none;fillColor=none;" vertex="1" parent="1">
          <mxGeometry x="110" y="-1110" width="30" height="30" as="geometry" />
        </mxCell>
        <mxCell id="EUJ_bRl5U1kdOAhy5BK1-13" value="1" style="text;html=1;align=center;verticalAlign=middle;resizable=0;points=[];autosize=1;strokeColor=none;fillColor=none;" vertex="1" parent="1">
          <mxGeometry x="520" y="-1120" width="30" height="30" as="geometry" />
        </mxCell>
        <mxCell id="EUJ_bRl5U1kdOAhy5BK1-14" value="1" style="text;html=1;align=center;verticalAlign=middle;resizable=0;points=[];autosize=1;strokeColor=none;fillColor=none;" vertex="1" parent="1">
          <mxGeometry x="580" y="-772" width="30" height="30" as="geometry" />
        </mxCell>
        <mxCell id="EUJ_bRl5U1kdOAhy5BK1-15" value="0..*" style="text;html=1;align=center;verticalAlign=middle;resizable=0;points=[];autosize=1;strokeColor=none;fillColor=none;" vertex="1" parent="1">
          <mxGeometry x="480" y="-600" width="40" height="30" as="geometry" />
        </mxCell>
        <mxCell id="EUJ_bRl5U1kdOAhy5BK1-16" value="1" style="text;html=1;align=center;verticalAlign=middle;resizable=0;points=[];autosize=1;strokeColor=none;fillColor=none;" vertex="1" parent="1">
          <mxGeometry x="690" y="-970" width="30" height="30" as="geometry" />
        </mxCell>
        <mxCell id="EUJ_bRl5U1kdOAhy5BK1-17" value="1" style="text;html=1;align=center;verticalAlign=middle;resizable=0;points=[];autosize=1;strokeColor=none;fillColor=none;" vertex="1" parent="1">
          <mxGeometry x="755" y="-310" width="30" height="30" as="geometry" />
        </mxCell>
      </root>
    </mxGraphModel>
  </diagram>
</mxfile>
